<svg width="428" height="76" viewBox="0 0 428 76" fill="none" xmlns="http://www.w3.org/2000/svg">
<path d="M352.465 37.543C352.465 16.809 369.273 0 390.004 0C410.738 0 427.547 16.809 427.547 37.543C427.547 58.274 410.738 75.082 390.004 75.082C369.273 75.082 352.465 58.274 352.465 37.543Z" fill="#AED0E4"/>
<path d="M25.914 58.817H395.719L369.805 16.266H0L25.914 58.817Z" fill="#AED0E4"/>
<path d="M27.602 55.817L5.33997 19.266H368.117L390.375 55.817H27.602Z" fill="#CAE6F3"/>
<path d="M390.004 3C409.051 3 424.547 18.496 424.547 37.543C424.547 56.59 409.051 72.082 390.004 72.082C370.957 72.082 355.465 56.59 355.465 37.543C355.465 18.496 370.957 3 390.004 3Z" fill="#CAE6F3"/>
<path d="M390.004 6C407.398 6 421.547 20.149 421.547 37.543C421.547 54.934 407.398 69.082 390.004 69.082C372.613 69.082 358.465 54.934 358.465 37.543C358.465 20.149 372.613 6 390.004 6Z" fill="#4E5777"/>
<path d="M29.285 52.817L10.68 22.266H366.434L385.035 52.817H29.285Z" fill="#4E5777"/>
<path d="M30.973 49.817L16.019 25.266H364.746L379.699 49.817H30.973Z" fill="#2A2E46"/>
<path d="M32.656 46.817L21.359 28.266H363.039V46.817H32.656Z" fill="#1C1E27"/>
<path d="M75.3659 46.817L60.8541 37.5L55 28.266H362.964V46.817H75.3659Z" fill="#FA3751"/>
<path d="M60.8541 37.543L65.8075 46.817H362.964V37.543H60.8541Z" fill="#C62C76"/>
<path d="M363.133 33.786V31.336H58.4361L61.1258 33.786H363.133Z" fill="#FF89A1"/>
<path d="M390.004 9C405.742 9 418.547 21.805 418.547 37.543C418.547 53.282 405.742 66.082 390.004 66.082C374.269 66.082 361.461 53.282 361.461 37.543C361.461 21.805 374.269 9 390.004 9Z" fill="#2A2E46"/>
<path d="M377.859 41.664L365.34 29.461L382.641 26.946L390.379 11.27L398.113 26.946L415.414 29.461L402.894 41.664L405.852 58.895L390.379 50.758L374.902 58.895L377.859 41.664Z" fill="#4E5777"/>
<path d="M381.082 40.614L371.785 31.555L384.633 29.688L390.379 18.047L396.121 29.688L408.969 31.555L399.672 40.614L401.867 53.411L390.379 47.368L378.887 53.411L381.082 40.614Z" fill="#C62C76"/>
<path d="M384.305 39.567L378.234 33.649L386.625 32.43L390.379 24.828L394.129 32.43L402.519 33.649L396.449 39.567L397.883 47.926L390.379 43.981L382.871 47.926L384.305 39.567Z" fill="#FA3751"/>
<path d="M395.047 32.563L383.531 44.082L382.871 47.926L390.379 43.981L391.371 44.5L402.258 33.614L395.047 32.563Z" fill="#FF89A1"/>
<path d="M392.348 28.817L382.934 38.231L383.992 39.258L393.035 30.215L392.348 28.817Z" fill="#FF89A1"/>
</svg>
