<svg width="428" height="76" viewBox="0 0 428 76" fill="none" xmlns="http://www.w3.org/2000/svg">
<path d="M75.082 37.543C75.082 16.809 58.274 0 37.543 0C16.809 0 3.05176e-05 16.809 3.05176e-05 37.543C3.05176e-05 58.274 16.809 75.082 37.543 75.082C58.274 75.082 75.082 58.274 75.082 37.543Z" fill="#AED0E4"/>
<path d="M401.633 58.817H31.828L57.742 16.266H427.547L401.633 58.817Z" fill="#AED0E4"/>
<path d="M399.945 55.817L422.207 19.266H59.43L37.172 55.817H399.945Z" fill="#CAE6F3"/>
<path d="M37.543 3C18.496 3 3.00003 18.496 3.00003 37.543C3.00003 56.59 18.496 72.082 37.543 72.082C56.59 72.082 72.082 56.59 72.082 37.543C72.082 18.496 56.59 3 37.543 3Z" fill="#CAE6F3"/>
<path d="M37.543 6C20.149 6 6.00003 20.149 6.00003 37.543C6.00003 54.934 20.149 69.082 37.543 69.082C54.934 69.082 69.082 54.934 69.082 37.543C69.082 20.149 54.934 6 37.543 6Z" fill="#4E5777"/>
<path d="M398.262 52.817L416.867 22.266H61.1129L42.5119 52.817H398.262Z" fill="#4E5777"/>
<path d="M396.574 49.817L411.528 25.266H62.801L47.848 49.817H396.574Z" fill="#2A2E46"/>
<path d="M394.891 46.817L406.188 28.266H64.508V46.817H394.891Z" fill="#1C1E27"/>
<path d="M98.1588 46.817L99.8605 37.5L100.547 28.266H64.4338V46.817H98.1588Z" fill="#3747FA"/>
<path d="M99.8605 37.543L99.2796 46.817H64.4338V37.543H99.8605Z" fill="#342CC6"/>
<path d="M64.4139 33.786V31.336H100.144L99.8286 33.786H64.4139Z" fill="#898BFF"/>
<path d="M37.5429 9C21.8049 9 8.99994 21.805 8.99994 37.543C8.99994 53.282 21.8049 66.082 37.5429 66.082C53.2779 66.082 66.0859 53.282 66.0859 37.543C66.0859 21.805 53.2779 9 37.5429 9Z" fill="#2A2E46"/>
<path d="M49.688 41.664L62.207 29.461L44.906 26.946L37.168 11.27L29.434 26.946L12.133 29.461L24.653 41.664L21.695 58.895L37.168 50.758L52.645 58.895L49.688 41.664Z" fill="#4E5777"/>
<path d="M46.465 40.614L55.762 31.555L42.914 29.688L37.168 18.047L31.426 29.688L18.578 31.555L27.875 40.614L25.68 53.411L37.168 47.368L48.66 53.411L46.465 40.614Z" fill="#342CC6"/>
<path d="M43.242 39.567L49.313 33.649L40.922 32.43L37.168 24.828L33.418 32.43L25.028 33.649L31.098 39.567L29.664 47.926L37.168 43.981L44.676 47.926L43.242 39.567Z" fill="#3747FA"/>
<path d="M32.5 32.563L44.016 44.082L44.676 47.926L37.168 43.981L36.176 44.5L25.289 33.614L32.5 32.563Z" fill="#898BFF"/>
<path d="M35.199 28.817L44.613 38.231L43.555 39.258L34.512 30.215L35.199 28.817Z" fill="#898BFF"/>
</svg>
